<svg width="16" height="16" viewBox="0 0 16 16" fill="none" xmlns="http://www.w3.org/2000/svg">
<g clip-path="url(#clip0_2033_1398)">
<path fill-rule="evenodd" clip-rule="evenodd" d="M4.50067 3.562C4.37493 3.44056 4.20653 3.37337 4.03173 3.37488C3.85693 3.3764 3.68972 3.44652 3.56612 3.57012C3.44251 3.69373 3.3724 3.86093 3.37088 4.03573C3.36936 4.21053 3.43656 4.37893 3.558 4.50467L4.972 5.92C5.09709 6.04501 5.26672 6.1152 5.44357 6.11514C5.62041 6.11507 5.78999 6.04476 5.915 5.91967C6.04 5.79457 6.1102 5.62494 6.11013 5.4481C6.11007 5.27125 6.03976 5.10167 5.91466 4.97667L4.50133 3.56333L4.50067 3.562ZM7.80067 6.862C7.67493 6.74056 7.50653 6.67337 7.33173 6.67488C7.15693 6.6764 6.98972 6.74652 6.86612 6.87012C6.74251 6.99373 6.6724 7.16093 6.67088 7.33573C6.66936 7.51053 6.73656 7.67893 6.858 7.80467L12.986 13.9327C13.1117 14.0541 13.2801 14.1213 13.4549 14.1198C13.6297 14.1183 13.7969 14.0482 13.9205 13.9245C14.0442 13.8009 14.1143 13.6337 14.1158 13.4589C14.1173 13.2841 14.0501 13.1157 13.9287 12.99L7.80067 6.862ZM11.1007 3.562C11.2256 3.68702 11.2959 3.85656 11.2959 4.03333C11.2959 4.21011 11.2256 4.37965 11.1007 4.50467L9.686 5.92C9.62406 5.9819 9.55053 6.03099 9.46962 6.06447C9.38871 6.09795 9.302 6.11517 9.21443 6.11514C9.12686 6.1151 9.04016 6.09783 8.95927 6.06429C8.87839 6.03075 8.8049 5.98161 8.743 5.91967C8.61799 5.79457 8.5478 5.62494 8.54786 5.4481C8.54793 5.27125 8.61824 5.10167 8.74333 4.97667L10.1573 3.56333C10.2192 3.50135 10.2928 3.45218 10.3737 3.41863C10.4546 3.38508 10.5414 3.36781 10.629 3.36781C10.7166 3.36781 10.8034 3.38508 10.8843 3.41863C10.9652 3.45218 11.0387 3.50135 11.1007 3.56333V3.562ZM5.91466 9.69067C6.03976 9.56566 6.11007 9.39608 6.11013 9.21924C6.1102 9.04239 6.04 8.87276 5.915 8.74767C5.78999 8.62257 5.62041 8.55226 5.44357 8.5522C5.26672 8.55214 5.09709 8.62233 4.972 8.74733L3.558 10.162C3.49432 10.2235 3.44354 10.2971 3.4086 10.3784C3.37366 10.4597 3.35527 10.5472 3.3545 10.6357C3.35373 10.7243 3.3706 10.812 3.40412 10.894C3.43764 10.9759 3.48714 11.0503 3.54974 11.1129C3.61233 11.1755 3.68676 11.225 3.7687 11.2585C3.85063 11.2921 3.93841 11.3089 4.02693 11.3082C4.11545 11.3074 4.20293 11.289 4.28427 11.2541C4.3656 11.2191 4.43917 11.1683 4.50067 11.1047L5.91466 9.69067ZM12.6627 7.33333C12.6627 7.51014 12.5924 7.67971 12.4674 7.80474C12.3424 7.92976 12.1728 8 11.996 8H9.996C9.81919 8 9.64962 7.92976 9.52459 7.80474C9.39957 7.67971 9.32933 7.51014 9.32933 7.33333C9.32933 7.15652 9.39957 6.98695 9.52459 6.86193C9.64962 6.7369 9.81919 6.66667 9.996 6.66667H11.996C12.1728 6.66667 12.3424 6.7369 12.4674 6.86193C12.5924 6.98695 12.6627 7.15652 12.6627 7.33333ZM4.66267 8C4.83948 8 5.00905 7.92976 5.13407 7.80474C5.25909 7.67971 5.32933 7.51014 5.32933 7.33333C5.32933 7.15652 5.25909 6.98695 5.13407 6.86193C5.00905 6.7369 4.83948 6.66667 4.66267 6.66667H2.66267C2.48585 6.66667 2.31628 6.7369 2.19126 6.86193C2.06624 6.98695 1.996 7.15652 1.996 7.33333C1.996 7.51014 2.06624 7.67971 2.19126 7.80474C2.31628 7.92976 2.48585 8 2.66267 8H4.66267ZM7.32933 12.6667C7.15252 12.6667 6.98295 12.5964 6.85793 12.4714C6.7329 12.3464 6.66267 12.1768 6.66267 12V10C6.66267 9.82319 6.7329 9.65362 6.85793 9.5286C6.98295 9.40357 7.15252 9.33333 7.32933 9.33333C7.50614 9.33333 7.67571 9.40357 7.80074 9.5286C7.92576 9.65362 7.996 9.82319 7.996 10V12C7.996 12.1768 7.92576 12.3464 7.80074 12.4714C7.67571 12.5964 7.50614 12.6667 7.32933 12.6667ZM6.66267 4.66667C6.66267 4.84348 6.7329 5.01305 6.85793 5.13807C6.98295 5.2631 7.15252 5.33333 7.32933 5.33333C7.50614 5.33333 7.67571 5.2631 7.80074 5.13807C7.92576 5.01305 7.996 4.84348 7.996 4.66667V2.66667C7.996 2.48986 7.92576 2.32029 7.80074 2.19526C7.67571 2.07024 7.50614 2 7.32933 2C7.15252 2 6.98295 2.07024 6.85793 2.19526C6.7329 2.32029 6.66267 2.48986 6.66267 2.66667V4.66667Z" fill="#EB74A3"/>
</g>
<defs>
<clipPath id="clip0_2033_1398">
<rect width="16" height="16" fill="white"/>
</clipPath>
</defs>
</svg>
