<svg width="16" height="16" viewBox="0 0 16 16" fill="none" xmlns="http://www.w3.org/2000/svg">
<g clip-path="url(#clip0_2033_1399)">
<path d="M10.3607 2.77333C10.4705 2.84397 10.5572 2.94532 10.6099 3.06478C10.6626 3.18425 10.6791 3.31657 10.6573 3.44533L10.1787 6.26199C10.1403 6.48781 10.1607 6.71971 10.238 6.93533L11.4447 10.302C12.0313 10.418 12.5513 10.5687 12.956 10.7533C13.2 10.8647 13.4387 11.004 13.6253 11.184C13.8127 11.3647 14 11.6393 14 12C14 12.5653 13.558 12.9133 13.2533 13.0933C12.9047 13.2993 12.444 13.462 11.9333 13.5893C10.9013 13.8473 9.51067 14 8 14C6.48933 14 5.09867 13.8473 4.06667 13.5893C3.556 13.462 3.09533 13.2993 2.74667 13.0933C2.442 12.9133 2 12.5653 2 12C2 11.64 2.18667 11.3647 2.37467 11.184C2.56133 11.004 2.8 10.864 3.044 10.7533C3.44933 10.5687 3.96867 10.418 4.556 10.3013L6.196 5.72399C6.38701 5.19072 6.74287 4.73212 7.212 4.41466L9.62667 2.78133C9.73474 2.70821 9.86189 2.66842 9.99237 2.66688C10.1228 2.66533 10.2509 2.70278 10.3607 2.77333ZM12.5187 4.28733C12.632 4.05199 12.67 4.02133 12.744 4.14866L12.7887 4.23399L12.8147 4.28733C13.101 4.88365 13.5395 5.39392 14.086 5.76666L14.2367 5.86466C14.412 5.97133 14.442 6.00199 14.2887 6.10333L14.2367 6.13599C13.6732 6.48193 13.211 6.97036 12.8967 7.55199L12.744 7.85133C12.6707 7.97866 12.632 7.94799 12.5187 7.71266C12.2323 7.11634 11.7938 6.60607 11.2473 6.23333L11.0093 6.07999C10.9167 6.01333 10.9227 5.97799 11.0447 5.89733L11.0967 5.86399C11.7123 5.48596 12.206 4.93858 12.5187 4.28733ZM5.06533 2.44333L5.11133 2.52533C5.32067 2.91199 5.63667 3.24266 6.02867 3.48866L6.17933 3.57599C6.30267 3.64333 6.32133 3.66799 6.256 3.71266L6.17933 3.75733C5.77918 3.97155 5.44027 4.2843 5.19467 4.66599L5.06067 4.89533C5.00933 4.97266 4.982 4.96599 4.93533 4.88999L4.88867 4.80866C4.67113 4.41378 4.3551 4.08191 3.97133 3.84533L3.82067 3.75733C3.69733 3.68999 3.67867 3.66533 3.744 3.62066L3.82067 3.57599C4.22082 3.36177 4.55973 3.04902 4.80533 2.66733L4.88867 2.52533C4.97667 2.36333 5.00533 2.34599 5.06533 2.44333Z" fill="#5ebc4e"/>
</g>
<defs>
<clipPath id="clip0_2033_1399">
<rect width="16" height="16" fill="white"/>
</clipPath>
</defs>
</svg>
